<svg width="1024" height="1024" viewBox="0 0 1024 1024" fill="none" xmlns="http://www.w3.org/2000/svg">
<rect width="1024" height="1024" fill="white"/>
<path d="M135.318 604.727V884H76.2727V604.727H135.318ZM259.989 887.409C244.08 887.409 229.67 883.318 216.761 875.136C203.943 866.864 193.761 854.727 186.216 838.727C178.761 822.636 175.034 802.909 175.034 779.545C175.034 755.545 178.898 735.591 186.625 719.682C194.352 703.682 204.625 691.727 217.443 683.818C230.352 675.818 244.489 671.818 259.852 671.818C271.58 671.818 281.352 673.818 289.17 677.818C297.08 681.727 303.443 686.636 308.261 692.545C313.17 698.364 316.898 704.091 319.443 709.727H321.216V604.727H379.17V884H321.898V850.455H319.443C316.716 856.273 312.852 862.045 307.852 867.773C302.943 873.409 296.534 878.091 288.625 881.818C280.807 885.545 271.261 887.409 259.989 887.409ZM278.398 841.182C287.761 841.182 295.67 838.636 302.125 833.545C308.67 828.364 313.67 821.136 317.125 811.864C320.67 802.591 322.443 791.727 322.443 779.273C322.443 766.818 320.716 756 317.261 746.818C313.807 737.636 308.807 730.545 302.261 725.545C295.716 720.545 287.761 718.045 278.398 718.045C268.852 718.045 260.807 720.636 254.261 725.818C247.716 731 242.761 738.182 239.398 747.364C236.034 756.545 234.352 767.182 234.352 779.273C234.352 791.455 236.034 802.227 239.398 811.591C242.852 820.864 247.807 828.136 254.261 833.409C260.807 838.591 268.852 841.182 278.398 841.182ZM522.386 888.091C500.841 888.091 482.295 883.727 466.75 875C451.295 866.182 439.386 853.727 431.023 837.636C422.659 821.455 418.477 802.318 418.477 780.227C418.477 758.682 422.659 739.773 431.023 723.5C439.386 707.227 451.159 694.545 466.341 685.455C481.614 676.364 499.523 671.818 520.068 671.818C533.886 671.818 546.75 674.045 558.659 678.5C570.659 682.864 581.114 689.455 590.023 698.273C599.023 707.091 606.023 718.182 611.023 731.545C616.023 744.818 618.523 760.364 618.523 778.182V794.136H441.659V758.136H563.841C563.841 749.773 562.023 742.364 558.386 735.909C554.75 729.455 549.705 724.409 543.25 720.773C536.886 717.045 529.477 715.182 521.023 715.182C512.205 715.182 504.386 717.227 497.568 721.318C490.841 725.318 485.568 730.727 481.75 737.545C477.932 744.273 475.977 751.773 475.886 760.045V794.273C475.886 804.636 477.795 813.591 481.614 821.136C485.523 828.682 491.023 834.5 498.114 838.591C505.205 842.682 513.614 844.727 523.341 844.727C529.795 844.727 535.705 843.818 541.068 842C546.432 840.182 551.023 837.455 554.841 833.818C558.659 830.182 561.568 825.727 563.568 820.455L617.295 824C614.568 836.909 608.977 848.182 600.523 857.818C592.159 867.364 581.341 874.818 568.068 880.182C554.886 885.455 539.659 888.091 522.386 888.091ZM716.159 887.955C702.795 887.955 690.886 885.636 680.432 881C669.977 876.273 661.705 869.318 655.614 860.136C649.614 850.864 646.614 839.318 646.614 825.5C646.614 813.864 648.75 804.091 653.023 796.182C657.295 788.273 663.114 781.909 670.477 777.091C677.841 772.273 686.205 768.636 695.568 766.182C705.023 763.727 714.932 762 725.295 761C737.477 759.727 747.295 758.545 754.75 757.455C762.205 756.273 767.614 754.545 770.977 752.273C774.341 750 776.023 746.636 776.023 742.182V741.364C776.023 732.727 773.295 726.045 767.841 721.318C762.477 716.591 754.841 714.227 744.932 714.227C734.477 714.227 726.159 716.545 719.977 721.182C713.795 725.727 709.705 731.455 707.705 738.364L653.977 734C656.705 721.273 662.068 710.273 670.068 701C678.068 691.636 688.386 684.455 701.023 679.455C713.75 674.364 728.477 671.818 745.205 671.818C756.841 671.818 767.977 673.182 778.614 675.909C789.341 678.636 798.841 682.864 807.114 688.591C815.477 694.318 822.068 701.682 826.886 710.682C831.705 719.591 834.114 730.273 834.114 742.727V884H779.023V854.955H777.386C774.023 861.5 769.523 867.273 763.886 872.273C758.25 877.182 751.477 881.045 743.568 883.864C735.659 886.591 726.523 887.955 716.159 887.955ZM732.795 847.864C741.341 847.864 748.886 846.182 755.432 842.818C761.977 839.364 767.114 834.727 770.841 828.909C774.568 823.091 776.432 816.5 776.432 809.136V786.909C774.614 788.091 772.114 789.182 768.932 790.182C765.841 791.091 762.341 791.955 758.432 792.773C754.523 793.5 750.614 794.182 746.705 794.818C742.795 795.364 739.25 795.864 736.068 796.318C729.25 797.318 723.295 798.909 718.205 801.091C713.114 803.273 709.159 806.227 706.341 809.955C703.523 813.591 702.114 818.136 702.114 823.591C702.114 831.5 704.977 837.545 710.705 841.727C716.523 845.818 723.886 847.864 732.795 847.864Z" fill="black"/>
<path d="M913.136 887.545C904.136 887.545 896.409 884.364 889.955 878C883.591 871.545 880.409 863.818 880.409 854.818C880.409 845.909 883.591 838.273 889.955 831.909C896.409 825.545 904.136 822.364 913.136 822.364C921.864 822.364 929.5 825.545 936.045 831.909C942.591 838.273 945.864 845.909 945.864 854.818C945.864 860.818 944.318 866.318 941.227 871.318C938.227 876.227 934.273 880.182 929.364 883.182C924.455 886.091 919.045 887.545 913.136 887.545Z" fill="#3B82F6"/>
</svg>
